<svg xmlns="http://www.w3.org/2000/svg" xmlns:xlink="http://www.w3.org/1999/xlink" width="1080" zoomAndPan="magnify" viewBox="0 0 810 809.999993" height="1080" preserveAspectRatio="xMidYMid meet" version="1.0"><defs><clipPath id="cc1e65587a"><path d="M 36.996094 65 L 358 65 L 358 745 L 36.996094 745 Z M 36.996094 65 " clip-rule="nonzero"/></clipPath></defs><g clip-path="url(#cc1e65587a)"><path fill="#12d2ff" d="M 275.292969 384.097656 L 357.09375 431.417969 L 357.09375 107.070312 L 284.949219 65.375 L 209.617188 108.769531 L 209.617188 196.195312 L 189.246094 207.972656 L 189.246094 120.546875 L 122.828125 158.953125 L 122.828125 251.367188 L 199.644531 295.609375 L 275.082031 252.003906 L 275.082031 170.308594 L 295.453125 158.53125 L 295.453125 263.78125 L 209.617188 313.328125 L 209.617188 400.222656 L 189.246094 412 L 189.246094 313.222656 L 114.234375 269.828125 L 36.996094 314.390625 L 36.996094 389.296875 L 122.828125 339.746094 L 122.828125 363.300781 L 36.996094 412.847656 L 36.996094 497.304688 L 114.234375 541.867188 L 178 505.050781 L 117.523438 470.035156 L 117.523438 446.589844 L 295.453125 549.292969 L 295.453125 670.457031 L 275.082031 658.679688 L 275.082031 561.070312 L 198.371094 516.824219 L 122.828125 560.433594 L 122.828125 649.980469 L 189.246094 688.28125 L 189.246094 588.019531 L 209.617188 599.796875 L 209.617188 700.058594 L 286.75 744.621094 L 357.09375 703.984375 L 357.09375 454.96875 L 275.292969 407.648438 Z M 275.292969 384.097656 " fill-opacity="1" fill-rule="evenodd"/></g><path fill="#ffffff" d="M 378.101562 132.324219 L 378.101562 701.757812 L 399.003906 713.957031 L 431.683594 732.738281 C 426.378906 751.199219 434.121094 771.675781 451.523438 781.648438 C 472.105469 793.53125 498.3125 786.53125 510.195312 765.945312 C 521.972656 745.46875 514.96875 719.15625 494.492188 707.273438 C 477.09375 697.300781 455.554688 700.800781 442.1875 714.59375 L 399.003906 689.660156 L 399.003906 120.226562 L 442.1875 95.296875 C 455.554688 109.195312 477.09375 112.695312 494.492188 102.617188 C 514.96875 90.734375 521.972656 64.527344 510.195312 43.945312 C 498.3125 23.464844 472.105469 16.464844 451.523438 28.242188 C 434.121094 38.320312 426.378906 58.691406 431.683594 77.152344 L 399.003906 96.039062 L 378.101562 108.132812 Z M 464.253906 759.582031 C 455.980469 754.699219 453.113281 744.089844 457.996094 735.8125 C 462.769531 727.539062 473.378906 724.671875 481.65625 729.449219 C 490.039062 734.222656 492.796875 744.832031 488.019531 753.214844 C 483.246094 761.488281 472.636719 764.355469 464.253906 759.582031 Z M 457.996094 74.179688 C 453.113281 65.800781 455.980469 55.191406 464.253906 50.414062 C 472.636719 45.640625 483.246094 48.503906 488.019531 56.78125 C 492.796875 65.058594 490.039062 75.667969 481.65625 80.441406 C 473.378906 85.320312 462.769531 82.457031 457.996094 74.179688 Z M 457.996094 74.179688 " fill-opacity="1" fill-rule="evenodd"/><path fill="#ffffff" d="M 473.378906 289.988281 L 421.601562 289.988281 L 421.601562 310.886719 L 482.078125 310.886719 L 503.085938 289.988281 L 528.761719 264.3125 L 641.121094 264.3125 L 688.972656 312.160156 C 679.105469 328.605469 681.226562 350.355469 695.445312 364.574219 C 712.207031 381.335938 739.476562 381.335938 756.238281 364.574219 C 773.003906 347.808594 773.003906 320.648438 756.238281 303.886719 C 742.023438 289.667969 720.273438 287.441406 703.828125 297.308594 L 670.722656 264.3125 L 649.820312 243.304688 L 520.0625 243.304688 L 499.160156 264.3125 Z M 713.585938 321.921875 C 720.378906 315.132812 731.304688 315.132812 738.097656 321.921875 C 744.886719 328.710938 744.886719 339.746094 738.097656 346.429688 C 731.304688 353.222656 720.378906 353.222656 713.585938 346.429688 C 706.796875 339.746094 706.796875 328.710938 713.585938 321.921875 Z M 713.585938 321.921875 " fill-opacity="1" fill-rule="evenodd"/><path fill="#12d2ff" d="M 421.601562 204.683594 L 449.402344 204.683594 L 495.023438 159.0625 L 528.445312 159.0625 C 533.21875 177.734375 550.089844 191.527344 570.140625 191.527344 C 593.800781 191.527344 613.113281 172.324219 613.113281 148.558594 C 613.113281 124.898438 593.800781 105.691406 570.140625 105.691406 C 550.089844 105.691406 533.21875 119.484375 528.445312 138.054688 L 486.324219 138.054688 L 465.316406 159.0625 L 440.703125 183.78125 L 421.601562 183.78125 Z M 552.742188 148.558594 C 552.742188 139.007812 560.59375 131.261719 570.140625 131.261719 C 579.691406 131.261719 587.542969 139.007812 587.542969 148.558594 C 587.542969 158.210938 579.691406 165.957031 570.140625 165.957031 C 560.59375 165.957031 552.742188 158.210938 552.742188 148.558594 Z M 552.742188 148.558594 " fill-opacity="1" fill-rule="evenodd"/><path fill="#ffffff" d="M 452.476562 499 L 421.601562 499 L 421.601562 520.007812 L 473.378906 520.007812 L 499.160156 545.683594 L 520.0625 566.585938 L 649.820312 566.585938 L 670.722656 545.683594 L 703.828125 512.582031 C 720.273438 522.449219 742.023438 520.328125 756.238281 506.109375 C 773.003906 489.347656 773.003906 462.183594 756.238281 445.421875 C 739.476562 428.65625 712.207031 428.65625 695.445312 445.421875 C 681.226562 459.640625 679.105469 481.28125 688.972656 497.726562 L 641.121094 545.683594 L 528.761719 545.683594 L 482.078125 499 Z M 738.097656 488.074219 C 731.304688 494.863281 720.378906 494.863281 713.585938 488.074219 C 706.796875 481.28125 706.796875 470.25 713.585938 463.457031 C 720.378906 456.667969 731.304688 456.667969 738.097656 463.457031 C 744.886719 470.25 744.886719 481.28125 738.097656 488.074219 Z M 738.097656 488.074219 " fill-opacity="1" fill-rule="evenodd"/><path fill="#12d2ff" d="M 421.601562 415.5 L 566.109375 415.5 C 570.777344 434.070312 587.648438 447.863281 607.699219 447.863281 C 631.46875 447.863281 650.671875 428.65625 650.671875 404.996094 C 650.671875 381.230469 631.46875 362.027344 607.699219 362.027344 C 587.648438 362.027344 570.777344 375.820312 566.109375 394.492188 L 421.601562 394.492188 Z M 590.40625 404.996094 C 590.40625 395.34375 598.152344 387.597656 607.699219 387.597656 C 617.355469 387.597656 625.101562 395.34375 625.101562 404.996094 C 625.101562 414.546875 617.355469 422.292969 607.699219 422.292969 C 598.152344 422.292969 590.40625 414.546875 590.40625 404.996094 Z M 590.40625 404.996094 " fill-opacity="1" fill-rule="evenodd"/><path fill="#12d2ff" d="M 470.304688 626.214844 L 449.402344 605.207031 L 421.601562 605.207031 L 421.601562 626.214844 L 440.703125 626.214844 L 486.324219 671.835938 L 528.445312 671.835938 C 533.21875 690.511719 550.089844 704.300781 570.140625 704.300781 C 593.800781 704.300781 613.113281 685.097656 613.113281 661.332031 C 613.113281 637.671875 593.800781 618.46875 570.140625 618.46875 C 550.089844 618.46875 533.21875 632.261719 528.445312 650.828125 L 495.023438 650.828125 Z M 570.140625 678.734375 C 560.59375 678.734375 552.742188 670.988281 552.742188 661.332031 C 552.742188 651.785156 560.59375 644.039062 570.140625 644.039062 C 579.691406 644.039062 587.542969 651.785156 587.542969 661.332031 C 587.542969 670.988281 579.691406 678.734375 570.140625 678.734375 Z M 570.140625 678.734375 " fill-opacity="1" fill-rule="evenodd"/></svg>